<mxfile host="app.diagrams.net" modified="2023-09-18T23:39:41.647Z" agent="Mozilla/5.0 (Windows NT 10.0; Win64; x64) AppleWebKit/537.36 (KHTML, like Gecko) Chrome/116.0.0.0 Safari/537.36" version="21.6.7" etag="VUoemgU6puIOnjxCbU_a" type="github">
  <diagram name="Trang-1" id="QZlK_5VrKwIwpZthrDz8">
    <mxGraphModel>
      <root>
        <mxCell id="0" />
        <mxCell id="1" parent="0" />
      </root>
    </mxGraphModel>
  </diagram>
</mxfile>
